<svg xmlns="http://www.w3.org/2000/svg" width="485.213" height="485.212"><path d="M242.607 0C108.629 0 .001 108.628.001 242.606c0 133.976 108.628 242.606 242.606 242.606s242.604-108.631 242.604-242.606C485.212 108.628 376.585 0 242.607 0zm15.164 454.116v-29.557h-30.327v29.557c-104.925-7.458-188.883-91.419-196.346-196.344h29.554v-30.327H31.098c7.463-104.928 91.421-188.886 196.346-196.349V60.65h30.327V31.097c104.926 7.462 188.882 91.421 196.344 196.349h-29.552v30.327h29.552c-7.463 104.924-91.419 188.885-196.344 196.343zm96.455-275.953c2.072 3.615.83 8.266-2.782 10.368l-80.092 46.227c.691 2.577 1.582 5.066 1.582 7.848 0 16.762-13.581 30.324-30.326 30.324-16.75 0-30.327-13.562-30.327-30.324l-82.299-47.503c-7.257-4.203-9.743-13.474-5.554-20.729 4.174-7.285 13.459-9.771 20.715-5.565l82.775 47.798c4.411-2.487 9.239-4.324 14.69-4.324 8.471 0 16.092 3.494 21.604 9.122l79.648-46.024c3.556-2.104 8.204-.86 10.366 2.782z"/></svg>