<svg viewBox="0 0 64 64" xmlns="http://www.w3.org/2000/svg"><path d="M40 1H2a1 1 0 00-1 1v60a1 1 0 001 1h38a1 1 0 001-1V2a1 1 0 00-1-1zm-1 60H3V3h36v58z"/><path d="M8 19h4a1 1 0 001-1v-4a1 1 0 00-1-1H8a1 1 0 00-1 1v4a1 1 0 001 1zm1-4h2v2H9v-2zM8 27h4a1 1 0 001-1v-4a1 1 0 00-1-1H8a1 1 0 00-1 1v4a1 1 0 001 1zm1-4h2v2H9v-2zM8 35h4a1 1 0 001-1v-4a1 1 0 00-1-1H8a1 1 0 00-1 1v4a1 1 0 001 1zm1-4h2v2H9v-2zM8 43h4a1 1 0 001-1v-4a1 1 0 00-1-1H8a1 1 0 00-1 1v4a1 1 0 001 1zm1-4h2v2H9v-2zM8 51h4a1 1 0 001-1v-4a1 1 0 00-1-1H8a1 1 0 00-1 1v4a1 1 0 001 1zm1-4h2v2H9v-2zm2-42h20v2H11zm4 4h11v2H15zm2 6h18v2H17zm0 8h18v2H17zm0 8h18v2H17zm0 8h18v2H17zm0 8h18v2H17zM49.958 7.713a1.001 1.001 0 00-1.916 0l-3 10A.997.997 0 0045 18v44a1 1 0 001 1h6a1 1 0 001-1V18a.997.997 0 00-.042-.287l-3-10zM49 11.48L50.656 17h-3.312L49 11.48zM51 19v36h-4V19h4zm-4 42v-4h4v4h-4zm15-18V11c0-.127-.024-.253-.071-.372l-2-5a1.002 1.002 0 00-1.858 0l-2 5A1.012 1.012 0 0056 11v32a1 1 0 00-1 1v12a1 1 0 001 1v5a1 1 0 001 1h4a1 1 0 001-1v-5a1 1 0 001-1V44a1 1 0 00-1-1zM59 8.692L59.923 11h-1.846L59 8.692zM58 13h2v30h-2V13zm3 42h-4V45h4v10zm-1 6h-2v-4h2v4z"/></svg>