<svg><path fill-rule="evenodd" clip-rule="evenodd" d="M10.69.926c.9.86 1.7 1.82 2.4 2.85 1.83 2.71 2.91 5.95 2.91 9.44 0 4.42-3.58 8-8 8s-8-3.58-8-8c0-2.54.68-4.92 1.87-6.96.16-.29.33-.56.51-.83.24-.37.79-.24.9.18.06.22.1.34.2.54.55 1.33 1.81 2.26 3.35 2.26 2.06 0 3.41-1.67 3.41-3.73 0-1.11-.2-2.35-.39-3.29-.1-.48.49-.8.84-.46zm-6.2 14.15c0 1.74 1.44 3.14 3.22 3.14 2.65 0 4.8-2.15 4.79-4.8 0-1.07-.12-2.13-.35-3.15-.08-.37-.54-.49-.82-.23-1.05.99-2.56 1.62-4.03 1.92-1.76.36-2.81 1.5-2.81 3.12z"/></svg>