<svg><path d="M13.967 26.5c-.653 0-1.182-.53-1.182-1.182v-2.247H11.32a.82.82 0 110-1.639h1.466V19.19h-1.327a.958.958 0 110-1.916h1.327V9.5a1 1 0 011-1h3.938c2.294 0 3.993.445 5.096 1.336 1.12.89 1.681 2.185 1.681 3.883 0 1.714-.604 3.058-1.812 4.033-1.209.958-2.986 1.437-5.332 1.437H15.15v2.244h3.515a.82.82 0 110 1.639H15.15v2.246c0 .653-.529 1.182-1.182 1.182zm3.047-9.227c1.594 0 2.828-.252 3.704-.756.893-.504 1.34-1.412 1.34-2.723 0-1.143-.369-1.992-1.104-2.546-.735-.555-1.882-.832-3.44-.832h-2.365v6.857h1.865z" fill="#009BB7"/><path d="M62.625 8H31.399C28.37 3.48 23.213.5 17.375.5 8.07.5.5 8.07.5 17.375S8.07 34.25 17.375 34.25c.634 0 1.26-.036 1.875-.105v28.48c0 1.035.84 1.875 1.875 1.875h41.5c1.035 0 1.875-.84 1.875-1.875V9.875C64.5 8.839 63.66 8 62.625 8zM53 19.25V30.5H30.5v-2.532a16.797 16.797 0 003.645-8.718H53zM4.25 17.375c0-7.237 5.888-13.125 13.125-13.125S30.5 10.138 30.5 17.375 24.612 30.5 17.375 30.5 4.25 24.612 4.25 17.375zm56.5 43.375H23V33.285a16.831 16.831 0 003.75-1.886v.976c0 1.035.84 1.875 1.875 1.875h26.25c1.035 0 1.875-.84 1.875-1.875v-15c0-1.035-.84-1.875-1.875-1.875h-20.73a16.74 16.74 0 00-.86-3.75H60.75v49z" fill="#009BB7"/><path d="M32.375 38h-3.75a1.875 1.875 0 000 3.75h3.75a1.875 1.875 0 000-3.75zm7.5 3.75h3.75a1.875 1.875 0 000-3.75h-3.75a1.875 1.875 0 000 3.75zm15-3.75h-3.75a1.875 1.875 0 000 3.75h3.75a1.875 1.875 0 000-3.75zm-22.5 7.5h-3.75a1.875 1.875 0 000 3.75h3.75a1.875 1.875 0 000-3.75zm7.5 3.75h3.75a1.875 1.875 0 000-3.75h-3.75a1.875 1.875 0 000 3.75zm15-3.75h-3.75a1.875 1.875 0 000 3.75h3.75a1.875 1.875 0 000-3.75zm-22.5 7.5h-3.75a1.875 1.875 0 000 3.75h3.75a1.875 1.875 0 000-3.75zm22.5 0h-15a1.875 1.875 0 000 3.75h15a1.875 1.875 0 000-3.75z" fill="#009BB7"/></svg>