<svg><path fill-rule="evenodd" clip-rule="evenodd" d="M121.568 4.774H31.862c-.15 0-.251 0-.402.1l-2.563 1.608a.771.771 0 01-.804 0 14.59 14.59 0 00-3.066-1.256c-.301-.1-.502-.301-.553-.603l-.653-2.914a.589.589 0 00-.553-.453l-5.628.05a.589.589 0 00-.553.453l-.654 2.914c-.05.302-.25.503-.552.603-1.056.302-2.06.754-3.066 1.257a.771.771 0 01-.804 0L9.448 4.925c-.251-.151-.503-.1-.704.1l-3.97 3.97a.538.538 0 00-.05.704l1.608 2.562a.77.77 0 010 .804c-.502 1.005-.955 2.01-1.256 3.066-.1.301-.302.502-.603.552l-2.915.654a.589.589 0 00-.452.553v5.577c0 .252.2.503.452.553l2.915.653c.301.05.502.302.603.553.301 1.056.754 2.06 1.256 3.066a.768.768 0 010 .803l-1.608 2.563c-.15.201-.1.553.1.704l3.97 3.92c.202.2.503.2.704.1l2.513-1.608a.772.772 0 01.804 0c.955.502 2.01.955 3.066 1.256.301.1.502.302.552.603l.654 2.915c.05.251.301.452.553.452h5.578a.589.589 0 00.553-.452l.653-2.915c.05-.301.302-.502.553-.603 1.055-.301 2.06-.754 3.066-1.256a.772.772 0 01.804 0l2.563 1.608c.1.05.2.1.301.1h89.907c.553 0 1.005-.452 1.005-1.005V5.83a1.03 1.03 0 00-1.055-1.055z" fill="#FBB040"/><path fill-rule="evenodd" clip-rule="evenodd" d="M120.462 3.518H30.756c-.15 0-.25 0-.402.1l-2.512 1.608a.91.91 0 01-.804.05 14.594 14.594 0 00-3.066-1.256c-.302-.1-.503-.301-.553-.603L22.766.503C22.615.2 22.364 0 22.112 0h-5.578a.589.589 0 00-.553.452l-.653 2.915c-.05.301-.251.502-.553.603-1.055.301-2.06.754-3.066 1.256a.771.771 0 01-.804 0L8.342 3.618c-.25-.15-.502-.1-.703.1l-3.97 3.97a.538.538 0 00-.05.704l1.608 2.563c.15.251.15.553 0 .804-.503 1.005-.955 2.01-1.257 3.065-.1.302-.301.503-.603.553l-2.915.653c-.251.1-.452.352-.452.603v5.578a.59.59 0 00.452.553l2.915.653c.302.05.503.302.603.553.302 1.055.754 2.06 1.257 3.065.15.251.15.553 0 .804l-1.609 2.563c-.15.201-.1.553.1.703l3.971 3.92c.201.201.503.201.704.1l2.563-1.607a.771.771 0 01.804 0c.955.502 2.01.954 3.065 1.256.302.1.503.301.553.603l.654 2.914c.05.252.301.453.552.453h5.579a.589.589 0 00.552-.453l.654-2.914c.05-.302.301-.503.553-.603 1.055-.302 2.06-.754 3.065-1.256a.771.771 0 01.804 0l2.563 1.608c.1.05.201.1.302.1h89.706c.553 0 1.005-.452 1.005-1.005V4.523c.101-.553-.352-1.005-.905-1.005z" fill="#FFE10C"/><path d="M19.399 30.1c5.912 0 10.704-4.792 10.704-10.703S25.31 8.693 19.399 8.693c-5.912 0-10.705 4.793-10.705 10.704 0 5.911 4.793 10.703 10.705 10.703z" fill="#fff"/><path fill-rule="evenodd" clip-rule="evenodd" d="M28.947 24.17c-1.055 2.111-2.814 3.87-4.925 4.875h-.05l-2.764-2.764a7.263 7.263 0 01-6.986-1.808c-1.86-1.86-2.462-4.473-1.86-6.885.051-.15.252-.201.353-.1l3.718 3.718 3.116-1.357c.1-.05.151-.1.201-.2l1.357-3.116-3.719-3.719c-.1-.1-.05-.301.1-.352 2.363-.603 5.027 0 6.886 1.86 1.91 1.91 2.513 4.573 1.81 6.985-.051.05 2.763 2.864 2.763 2.864z" fill="#414042"/><path d="M19.399 30.1A10.68 10.68 0 018.694 19.397c0-5.93 4.825-10.704 10.705-10.704s10.704 4.774 10.704 10.704c0 5.93-4.825 10.703-10.704 10.703zm0-20.1C14.172 10 9.9 14.22 9.9 19.447c0 5.226 4.272 9.447 9.499 9.447 5.226 0 9.498-4.22 9.498-9.447 0-5.226-4.272-9.447-9.498-9.447z" fill="#FBB040"/><path fill-rule="evenodd" clip-rule="evenodd" d="M121.518 4.523v14.02c-12.514 2.16-28.143 1.708-45.13 1.708-17.288 0-33.67-1.357-46.838-4.271 0-.05-.05-.1-.05-.15a10.75 10.75 0 00-14.725-6.081 7.493 7.493 0 00-1.508.904C10.252 9.196 7.69 7.588 5.63 5.78l2.01-2.01c.2-.201.502-.251.703-.1l2.563 1.607a.772.772 0 00.805 0c.954-.552 2.01-.954 3.065-1.256.302-.1.503-.301.553-.603L15.98.503a.589.589 0 01.553-.453h5.578c.252 0 .503.201.553.453l.654 2.914c.05.302.301.503.552.603 1.056.302 2.06.704 3.066 1.256a.681.681 0 00.804-.05l2.513-1.608c.1-.05.251-.1.402-.1h89.756c.603-.05 1.056.452 1.106 1.005z" fill="#FEE472"/><path d="M65.433 17.94v-1.206h-4.825V10.2h1.005v5.578h2.965V10.25h1.005v5.578h.855v2.16h-1.005v-.05zm6.483-4.925v.955H68.9v1.86h3.217v.954h-4.222V10.25h4.222v.955H68.9v1.809h3.016zm5.678 3.769V13.97H74.58v2.814h-1.005V10.25h1.005v2.764h3.016V10.25H78.6v6.533h-1.005zm5.277 0h-1.005v-5.578h-1.91v-.955h4.825v.955h-1.91v5.578zM88.3 10.25c1.759 0 2.864 1.005 2.864 2.463 0 1.457-1.105 2.462-2.864 2.462h-1.106v1.608h-1.005V10.25h2.11zm.1 3.97c.955 0 1.86-.452 1.86-1.508 0-1.055-.855-1.507-1.86-1.507h-1.156v3.015H88.4zM36.988 24.724c1.508 0 2.211.804 2.211 2.01 0 1.206-.653 2.01-2.211 2.01h-2.764V22.21h4.222v.955h-3.217v1.558h1.759zm.05 3.115c.905 0 1.257-.402 1.257-1.055 0-.653-.402-1.055-1.257-1.055H35.28v2.11h1.76zm6.383-3.115c1.457 0 2.211.804 2.211 2.01 0 1.206-.653 2.01-2.211 2.01h-2.714V22.21h1.005v2.513h1.709zm0 3.115c.904 0 1.206-.402 1.206-1.055 0-.653-.352-1.055-1.206-1.055h-1.709v2.11h1.709zm2.965.905V22.21h1.005v6.533h-1.005zm5.327 0h-1.005v-5.528h-1.91v-.955h4.825v.955h-1.91v5.528zm9.398-3.216a3.314 3.314 0 01-3.317 3.316c-1.81 0-3.317-1.507-3.317-3.316a3.282 3.282 0 013.317-3.317c1.86-.05 3.317 1.457 3.317 3.317zm-5.629 0c0 1.407 1.005 2.361 2.312 2.361 1.306 0 2.312-1.005 2.312-2.361 0-1.357-1.006-2.362-2.312-2.362-1.307 0-2.312.954-2.312 2.362zm9.7-3.267c1.859 0 2.21 1.005 2.21 1.709 0 .703-.351 1.206-.954 1.407.754.15 1.206.754 1.206 1.558 0 1.055-.603 1.859-2.362 1.859h-2.563V22.26h2.462zm-1.458 2.714h1.558c.904 0 1.106-.453 1.106-.905 0-.402-.151-.904-1.106-.904h-1.558v1.809zm0 2.864h1.759c.904 0 1.206-.452 1.206-1.005 0-.553-.352-1.005-1.206-1.005h-1.759v2.01zm8.141-3.115c1.458 0 2.212.804 2.212 2.01 0 1.206-.654 2.01-2.212 2.01h-2.713V22.21h1.005v2.513h1.708zm0 3.115c.905 0 1.207-.402 1.207-1.055 0-.653-.352-1.055-1.207-1.055h-1.708v2.11h1.708zm2.965.905V22.21h1.005v6.533H74.83zm3.569 0h-1.156l2.311-3.367-2.16-3.116h1.155l1.608 2.262 1.558-2.262h1.156l-2.16 3.166 2.311 3.317h-1.156l-1.709-2.463-1.758 2.463zm9.548 0l1.357-2.362-2.412-4.171h1.156l1.86 3.116 1.858-3.116h1.156l-3.819 6.533h-1.156zm11.157-5.478l-.653.603a2.586 2.586 0 00-1.81-.753c-1.306 0-2.312 1.005-2.312 2.361 0 1.407 1.006 2.362 2.312 2.362.704 0 1.357-.251 1.81-.754l.653.603c-.653.704-1.508 1.056-2.463 1.106-1.809 0-3.317-1.508-3.317-3.317a3.314 3.314 0 013.317-3.316c.955 0 1.86.452 2.463 1.105zm1.91 5.478h-1.106l2.714-6.533h.603l2.663 6.533h-1.105l-1.86-4.674-1.909 4.674zm6.281 0l1.357-2.362-2.412-4.171h1.156l1.859 3.116 1.86-3.116h1.156l-3.82 6.533h-1.156zm7.388 0h-1.005V22.21h4.121v.955h-3.116v5.578z" fill="#414042" stroke="#414042" stroke-width=".6" stroke-miterlimit="10" stroke-linecap="round" stroke-linejoin="round"/></svg>