<svg><path fill-rule="evenodd" clip-rule="evenodd" d="M31.598 13.847l-2.335-.524c-.242-.04-.403-.241-.483-.442-.242-.846-.604-1.65-1.006-2.456a.618.618 0 010-.644l1.288-2.053c.12-.2.08-.402-.08-.563l-3.14-3.18a.496.496 0 00-.564-.08l-2.053 1.288a.618.618 0 01-.644 0c-.765-.443-1.61-.765-2.455-1.007-.242-.08-.403-.241-.443-.483L19.16 1.37a.472.472 0 00-.443-.363h-4.589a.472.472 0 00-.443.363l-.523 2.334c-.04.242-.201.403-.443.483-.845.242-1.65.604-2.455 1.007a.618.618 0 01-.644 0l-2.053-1.29c-.201-.12-.402-.08-.563.081l-3.14 3.18a.496.496 0 00-.08.563l1.288 2.053c.12.201.12.443 0 .644-.403.805-.765 1.61-1.007 2.456-.08.241-.241.402-.483.442l-2.294.524a.472.472 0 00-.362.442v4.468c0 .202.16.403.362.443l2.335.523c.241.04.402.242.483.443.241.845.603 1.65 1.006 2.455.12.202.12.443 0 .645l-1.288 2.052c-.12.202-.08.443.08.564l3.18 3.14c.161.16.403.2.564.08l2.012-1.288a.618.618 0 01.644 0 13.1 13.1 0 002.456 1.006c.241.08.402.242.443.483l.523 2.335a.47.47 0 00.442.362h4.388a.472.472 0 00.443-.362l.523-2.335c.04-.241.242-.402.443-.483.845-.241 1.65-.604 2.455-1.006a.618.618 0 01.644 0l2.013 1.288c.201.12.402.08.563-.08l3.18-3.14c.161-.161.201-.403.08-.564l-1.287-2.053a.618.618 0 010-.644c.442-.764.764-1.61 1.006-2.455.08-.241.241-.402.483-.443l2.334-.523a.472.472 0 00.363-.443V14.29c.16-.2.04-.362-.201-.442z" fill="#FBB040"/><path fill-rule="evenodd" clip-rule="evenodd" d="M31.074 13.283v4.508a.472.472 0 01-.362.443l-2.335.523c-.241.04-.402.242-.483.443-.241.845-.603 1.69-1.006 2.455a.618.618 0 000 .644l1.288 2.053c.12.161.08.403-.08.564l-3.18 3.14c-.161.16-.403.2-.564.08l-2.012-1.288a.618.618 0 00-.644 0 13.1 13.1 0 01-2.456 1.006c-.241.08-.402.242-.442.483l-.604 2.294a.472.472 0 01-.443.363h-4.428a.472.472 0 01-.443-.363l-.523-2.334c-.04-.242-.241-.403-.442-.483-.846-.242-1.65-.604-2.456-1.006a.618.618 0 00-.644 0l-2.012 1.288c-.202.12-.403.08-.564-.08l-3.18-3.14c-.16-.162-.201-.403-.08-.564l1.288-2.053a.618.618 0 000-.644A13.109 13.109 0 013.26 19.16c-.08-.242-.241-.403-.483-.443l-2.415-.523A.472.472 0 010 17.75v-4.468c0-.201.161-.402.362-.443l2.335-.523c.241-.04.402-.242.483-.443.241-.845.604-1.65 1.006-2.455a.618.618 0 000-.644L2.898 6.762c-.12-.2-.08-.402.08-.563l3.14-3.18c.08-.08.161-.12.242-.12h.12c.081 0 .121.04.202.08l2.053 1.288c.04.04.12.04.16.08.121.04.242.04.363 0 .04 0 .12-.04.16-.08.766-.403 1.61-.765 2.456-1.007.242-.08.403-.241.443-.483L12.84.443a.437.437 0 01.322-.322c.04 0 .121-.04.161-.04h4.629c.201 0 .362.16.403.362l.523 2.334a.66.66 0 00.443.483c.12.04.201.08.322.121.12.04.201.08.322.121.12.04.201.08.322.12.402.162.805.323 1.207.524.121.04.202.12.282.161.201.12.443.12.644 0l2.053-1.288c.201-.12.402-.08.564.08l3.14 3.18a.496.496 0 01.08.564l-1.288 2.012a.618.618 0 000 .644c.402.806.764 1.61 1.006 2.456.08.241.241.402.483.443l2.335.523c.12-.04.281.12.281.362z" fill="#FFE10C"/><path d="M15.537 24.03a8.574 8.574 0 100-17.147 8.574 8.574 0 000 17.147z" fill="#fff"/><path fill-rule="evenodd" clip-rule="evenodd" d="M23.185 19.32c-.845 1.691-2.254 3.1-3.945 3.905h-.04l-2.254-2.214a5.817 5.817 0 01-5.595-1.449c-1.49-1.489-1.972-3.582-1.49-5.514.04-.12.202-.161.282-.08l2.979 2.978 2.496-1.087c.08-.04.12-.08.16-.16l1.087-2.496-2.978-2.979c-.08-.08-.04-.242.08-.282 1.892-.483 4.025 0 5.515 1.49a5.632 5.632 0 011.449 5.594c0 .04 2.254 2.295 2.254 2.295z" fill="#414042"/><path d="M15.537 24.07a8.555 8.555 0 01-8.574-8.573 8.555 8.555 0 018.574-8.574 8.555 8.555 0 018.574 8.574c0 4.75-3.864 8.573-8.574 8.573zm0-16.14c-4.186 0-7.607 3.38-7.607 7.567 0 4.186 3.42 7.567 7.607 7.567 4.186 0 7.608-3.38 7.608-7.567 0-4.186-3.422-7.567-7.608-7.567z" fill="#FBB040"/><path fill-rule="evenodd" clip-rule="evenodd" d="M31.074 13.283v.845c-2.576-.402-5.031-.845-7.406-1.409 0-.04-.04-.08-.04-.12a8.61 8.61 0 00-11.794-4.87 6.005 6.005 0 00-1.208.724C8.211 7.286 6.158 5.997 4.508 4.548l1.61-1.61c.08-.08.161-.12.242-.12h.12c.081 0 .121.04.202.08l2.053 1.288c.04.04.12.04.16.08.121.04.242.04.363 0 .04 0 .12-.04.16-.08a13.11 13.11 0 012.456-1.006c.242-.08.403-.242.443-.483L12.84.362a.46.46 0 01.282-.322c.04 0 .12-.04.161-.04h4.508c.04 0 .08 0 .161.04.161.04.282.161.282.322l.523 2.335c.04.241.242.402.443.483h.04c.121.04.202.08.322.12.121.04.201.081.322.121.121.04.201.08.322.121.403.161.805.322 1.208.523.12.04.201.121.282.161.2.121.442.121.644 0l2.052-1.288c.202-.12.403-.08.564.08l3.14 3.18a.496.496 0 01.08.564l-1.288 2.013a.618.618 0 000 .644c.403.805.765 1.61 1.006 2.455.08.242.242.403.483.443l2.335.523c.201.04.362.201.362.443z" fill="#FEE472"/></svg>