<svg><path d="M0 20C0 8.954 8.954 0 20 0s20 8.954 20 20-8.954 20-20 20S0 31.046 0 20z" fill="#333"/><path d="M20 40c11.046 0 20-8.954 20-20S31.046 0 20 0 0 8.954 0 20s8.954 20 20 20z" fill="#FAE348"/><path fill-rule="evenodd" clip-rule="evenodd" d="M19.244 28.772h1.57s.474-.052.716-.313c.223-.24.216-.69.216-.69s-.03-2.106.947-2.416c.964-.306 2.201 2.036 3.513 2.936.992.681 1.745.532 1.745.532l3.508-.05s1.834-.112.964-1.555c-.071-.118-.506-1.067-2.607-3.017-2.2-2.04-1.905-1.71.744-5.241 1.613-2.15 2.258-3.463 2.057-4.025-.192-.536-1.379-.394-1.379-.394l-3.949.024s-.292-.04-.51.09c-.212.127-.348.424-.348.424s-.625 1.664-1.459 3.079c-1.758 2.986-2.461 3.143-2.748 2.958-.669-.432-.502-1.736-.502-2.662 0-2.894.439-4.1-.855-4.413-.429-.103-.745-.172-1.843-.183-1.408-.014-2.601.005-3.276.335-.45.22-.796.71-.585.739.261.035.852.159 1.165.586.405.55.39 1.787.39 1.787s.233 3.406-.542 3.829c-.532.29-1.262-.302-2.83-3.011-.803-1.388-1.41-2.921-1.41-2.921s-.117-.287-.325-.44c-.253-.186-.607-.245-.607-.245l-3.752.024s-.564.016-.77.26c-.184.219-.015.67-.015.67s2.938 6.872 6.264 10.336c3.05 3.175 6.513 2.967 6.513 2.967z" fill="#333"/></svg>